<mxfile host="app.diagrams.net" agent="Mozilla/5.0 (Windows NT 10.0; Win64; x64) AppleWebKit/537.36 (KHTML, like Gecko) Chrome/126.0.0.0 Safari/537.36 NetType/WIFI MicroMessenger/7.0.20.1781(0x6700143B) WindowsWechat(0x63090c33) XWEB/14185 Flue" version="28.1.1">
  <diagram name="第 1 页" id="1YX17IwuBQwZQdCLIzFM">
    <mxGraphModel dx="496" dy="289" grid="1" gridSize="10" guides="1" tooltips="1" connect="1" arrows="1" fold="1" page="0" pageScale="1" pageWidth="2339" pageHeight="3300" math="0" shadow="0">
      <root>
        <mxCell id="0" />
        <mxCell id="1" parent="0" />
        <mxCell id="JLMIjg0oPhcSFCDLWmgb-1" value="Bottleneck-iAFF" style="rounded=1;whiteSpace=wrap;html=1;fillColor=#e1d5e7;strokeColor=#9673a6;" parent="1" vertex="1">
          <mxGeometry x="120" y="191.5" width="80" height="40" as="geometry" />
        </mxCell>
        <mxCell id="JLMIjg0oPhcSFCDLWmgb-2" value="Conv" style="rounded=1;whiteSpace=wrap;html=1;fillColor=#f8cecc;strokeColor=#b85450;" parent="1" vertex="1">
          <mxGeometry x="120" y="78.5" width="80" height="40" as="geometry" />
        </mxCell>
        <mxCell id="JLMIjg0oPhcSFCDLWmgb-3" value="" style="endArrow=classic;html=1;rounded=0;exitX=0.5;exitY=1;exitDx=0;exitDy=0;" parent="1" source="JLMIjg0oPhcSFCDLWmgb-2" edge="1">
          <mxGeometry width="50" height="50" relative="1" as="geometry">
            <mxPoint x="480" y="421.5" as="sourcePoint" />
            <mxPoint x="160" y="131.5" as="targetPoint" />
          </mxGeometry>
        </mxCell>
        <mxCell id="JLMIjg0oPhcSFCDLWmgb-4" value="Split" style="rounded=1;whiteSpace=wrap;html=1;fillColor=#ffe6cc;strokeColor=#d79b00;" parent="1" vertex="1">
          <mxGeometry x="120" y="131.5" width="80" height="40" as="geometry" />
        </mxCell>
        <mxCell id="JLMIjg0oPhcSFCDLWmgb-6" value="Bottleneck-iAFF" style="rounded=1;whiteSpace=wrap;html=1;fillColor=#e1d5e7;strokeColor=#9673a6;" parent="1" vertex="1">
          <mxGeometry x="120" y="251.5" width="80" height="40" as="geometry" />
        </mxCell>
        <mxCell id="JLMIjg0oPhcSFCDLWmgb-8" value="Concat" style="rounded=1;whiteSpace=wrap;html=1;fillColor=#dae8fc;strokeColor=#6c8ebf;" parent="1" vertex="1">
          <mxGeometry x="120" y="311.5" width="80" height="40" as="geometry" />
        </mxCell>
        <mxCell id="JLMIjg0oPhcSFCDLWmgb-9" value="" style="endArrow=classic;html=1;rounded=0;exitX=0.5;exitY=1;exitDx=0;exitDy=0;entryX=0.5;entryY=0;entryDx=0;entryDy=0;" parent="1" source="JLMIjg0oPhcSFCDLWmgb-6" target="JLMIjg0oPhcSFCDLWmgb-8" edge="1">
          <mxGeometry width="50" height="50" relative="1" as="geometry">
            <mxPoint x="480" y="421.5" as="sourcePoint" />
            <mxPoint x="530" y="371.5" as="targetPoint" />
          </mxGeometry>
        </mxCell>
        <mxCell id="JLMIjg0oPhcSFCDLWmgb-10" value="Conv" style="rounded=1;whiteSpace=wrap;html=1;fillColor=#fad9d5;strokeColor=#ae4132;" parent="1" vertex="1">
          <mxGeometry x="120" y="371.5" width="80" height="40" as="geometry" />
        </mxCell>
        <mxCell id="JLMIjg0oPhcSFCDLWmgb-11" value="" style="endArrow=classic;html=1;rounded=0;exitX=0.5;exitY=1;exitDx=0;exitDy=0;entryX=0.5;entryY=0;entryDx=0;entryDy=0;" parent="1" source="JLMIjg0oPhcSFCDLWmgb-8" target="JLMIjg0oPhcSFCDLWmgb-10" edge="1">
          <mxGeometry width="50" height="50" relative="1" as="geometry">
            <mxPoint x="480" y="421.5" as="sourcePoint" />
            <mxPoint x="530" y="371.5" as="targetPoint" />
          </mxGeometry>
        </mxCell>
        <mxCell id="JLMIjg0oPhcSFCDLWmgb-12" value="" style="endArrow=none;html=1;rounded=0;exitX=1;exitY=0.5;exitDx=0;exitDy=0;" parent="1" source="JLMIjg0oPhcSFCDLWmgb-4" edge="1">
          <mxGeometry width="50" height="50" relative="1" as="geometry">
            <mxPoint x="480" y="301.5" as="sourcePoint" />
            <mxPoint x="280" y="151.5" as="targetPoint" />
          </mxGeometry>
        </mxCell>
        <mxCell id="JLMIjg0oPhcSFCDLWmgb-13" value="" style="endArrow=none;html=1;rounded=0;" parent="1" edge="1">
          <mxGeometry width="50" height="50" relative="1" as="geometry">
            <mxPoint x="280" y="151.5" as="sourcePoint" />
            <mxPoint x="280" y="331.5" as="targetPoint" />
          </mxGeometry>
        </mxCell>
        <mxCell id="JLMIjg0oPhcSFCDLWmgb-14" value="" style="endArrow=classic;html=1;rounded=0;entryX=1;entryY=0.5;entryDx=0;entryDy=0;" parent="1" target="JLMIjg0oPhcSFCDLWmgb-8" edge="1">
          <mxGeometry width="50" height="50" relative="1" as="geometry">
            <mxPoint x="280" y="331.5" as="sourcePoint" />
            <mxPoint x="530" y="251.5" as="targetPoint" />
          </mxGeometry>
        </mxCell>
        <mxCell id="JLMIjg0oPhcSFCDLWmgb-15" value="" style="endArrow=none;html=1;rounded=0;" parent="1" edge="1">
          <mxGeometry width="50" height="50" relative="1" as="geometry">
            <mxPoint x="160" y="181.5" as="sourcePoint" />
            <mxPoint x="240" y="181.5" as="targetPoint" />
          </mxGeometry>
        </mxCell>
        <mxCell id="JLMIjg0oPhcSFCDLWmgb-16" value="" style="endArrow=none;html=1;rounded=0;" parent="1" edge="1">
          <mxGeometry width="50" height="50" relative="1" as="geometry">
            <mxPoint x="240" y="181.5" as="sourcePoint" />
            <mxPoint x="240" y="331.5" as="targetPoint" />
          </mxGeometry>
        </mxCell>
        <mxCell id="JLMIjg0oPhcSFCDLWmgb-17" value="C3K2-iAFF&lt;div&gt;C3k=False&lt;/div&gt;" style="text;strokeColor=none;fillColor=none;align=left;verticalAlign=middle;spacingLeft=4;spacingRight=4;overflow=hidden;points=[[0,0.5],[1,0.5]];portConstraint=eastwest;rotatable=0;whiteSpace=wrap;html=1;" parent="1" vertex="1">
          <mxGeometry x="210" y="358.5" width="90" height="40" as="geometry" />
        </mxCell>
        <mxCell id="JLMIjg0oPhcSFCDLWmgb-20" value="Conv" style="rounded=1;whiteSpace=wrap;html=1;fillColor=#f8cecc;strokeColor=#b85450;direction=east;" parent="1" vertex="1">
          <mxGeometry x="310" y="80" width="80" height="40" as="geometry" />
        </mxCell>
        <mxCell id="JLMIjg0oPhcSFCDLWmgb-21" value="Split" style="rounded=1;whiteSpace=wrap;html=1;fillColor=#ffe6cc;strokeColor=#d79b00;direction=east;" parent="1" vertex="1">
          <mxGeometry x="310" y="133" width="80" height="40" as="geometry" />
        </mxCell>
        <mxCell id="JLMIjg0oPhcSFCDLWmgb-22" value="" style="endArrow=classic;html=1;rounded=0;exitX=0.5;exitY=1;exitDx=0;exitDy=0;entryX=0.5;entryY=0;entryDx=0;entryDy=0;" parent="1" source="JLMIjg0oPhcSFCDLWmgb-20" target="JLMIjg0oPhcSFCDLWmgb-21" edge="1">
          <mxGeometry width="50" height="50" relative="1" as="geometry">
            <mxPoint x="410" y="280" as="sourcePoint" />
            <mxPoint x="460" y="230" as="targetPoint" />
          </mxGeometry>
        </mxCell>
        <mxCell id="JLMIjg0oPhcSFCDLWmgb-23" value="C3K iAFF" style="rounded=1;whiteSpace=wrap;html=1;fillColor=#d5e8d4;strokeColor=#82b366;direction=east;" parent="1" vertex="1">
          <mxGeometry x="310" y="190" width="80" height="40" as="geometry" />
        </mxCell>
        <mxCell id="JLMIjg0oPhcSFCDLWmgb-24" value="" style="endArrow=classic;html=1;rounded=0;exitX=0.5;exitY=1;exitDx=0;exitDy=0;entryX=0.5;entryY=1;entryDx=0;entryDy=0;" parent="1" source="JLMIjg0oPhcSFCDLWmgb-21" edge="1">
          <mxGeometry width="50" height="50" relative="1" as="geometry">
            <mxPoint x="410" y="280" as="sourcePoint" />
            <mxPoint x="350" y="190" as="targetPoint" />
          </mxGeometry>
        </mxCell>
        <mxCell id="JLMIjg0oPhcSFCDLWmgb-25" value="C3K iAFF" style="rounded=1;whiteSpace=wrap;html=1;fillColor=#d5e8d4;strokeColor=#82b366;direction=east;" parent="1" vertex="1">
          <mxGeometry x="310" y="250" width="80" height="40" as="geometry" />
        </mxCell>
        <mxCell id="JLMIjg0oPhcSFCDLWmgb-27" value="Concat" style="rounded=1;whiteSpace=wrap;html=1;fillColor=#dae8fc;strokeColor=#6c8ebf;direction=east;" parent="1" vertex="1">
          <mxGeometry x="310" y="310" width="80" height="40" as="geometry" />
        </mxCell>
        <mxCell id="JLMIjg0oPhcSFCDLWmgb-28" value="" style="endArrow=classic;html=1;rounded=0;exitX=0.5;exitY=1;exitDx=0;exitDy=0;entryX=0.5;entryY=0;entryDx=0;entryDy=0;" parent="1" edge="1">
          <mxGeometry width="50" height="50" relative="1" as="geometry">
            <mxPoint x="350" y="290" as="sourcePoint" />
            <mxPoint x="350" y="310" as="targetPoint" />
          </mxGeometry>
        </mxCell>
        <mxCell id="JLMIjg0oPhcSFCDLWmgb-29" value="" style="endArrow=classic;html=1;rounded=0;" parent="1" edge="1">
          <mxGeometry width="50" height="50" relative="1" as="geometry">
            <mxPoint x="350" y="360" as="sourcePoint" />
            <mxPoint x="350" y="370" as="targetPoint" />
            <Array as="points">
              <mxPoint x="350" y="350" />
            </Array>
          </mxGeometry>
        </mxCell>
        <mxCell id="JLMIjg0oPhcSFCDLWmgb-30" value="Conv" style="rounded=1;whiteSpace=wrap;html=1;fillColor=#fad9d5;strokeColor=#ae4132;direction=east;" parent="1" vertex="1">
          <mxGeometry x="310" y="373" width="80" height="40" as="geometry" />
        </mxCell>
        <mxCell id="JLMIjg0oPhcSFCDLWmgb-31" value="" style="endArrow=none;html=1;rounded=0;" parent="1" edge="1">
          <mxGeometry width="50" height="50" relative="1" as="geometry">
            <mxPoint x="390" y="150" as="sourcePoint" />
            <mxPoint x="470" y="150" as="targetPoint" />
          </mxGeometry>
        </mxCell>
        <mxCell id="JLMIjg0oPhcSFCDLWmgb-32" value="" style="endArrow=none;html=1;rounded=0;" parent="1" edge="1">
          <mxGeometry width="50" height="50" relative="1" as="geometry">
            <mxPoint x="470" y="330" as="sourcePoint" />
            <mxPoint x="470" y="150" as="targetPoint" />
          </mxGeometry>
        </mxCell>
        <mxCell id="JLMIjg0oPhcSFCDLWmgb-33" value="" style="endArrow=classic;html=1;rounded=0;entryX=1;entryY=0.5;entryDx=0;entryDy=0;exitX=1;exitY=0.5;exitDx=0;exitDy=0;" parent="1" target="JLMIjg0oPhcSFCDLWmgb-27" edge="1">
          <mxGeometry width="50" height="50" relative="1" as="geometry">
            <mxPoint x="470" y="330" as="sourcePoint" />
            <mxPoint x="460" y="340" as="targetPoint" />
          </mxGeometry>
        </mxCell>
        <mxCell id="JLMIjg0oPhcSFCDLWmgb-34" value="" style="endArrow=none;html=1;rounded=0;" parent="1" edge="1">
          <mxGeometry width="50" height="50" relative="1" as="geometry">
            <mxPoint x="350" y="180" as="sourcePoint" />
            <mxPoint x="430" y="180" as="targetPoint" />
          </mxGeometry>
        </mxCell>
        <mxCell id="JLMIjg0oPhcSFCDLWmgb-36" value="C3K2-iAFF&lt;div&gt;C3k=True&lt;/div&gt;" style="text;strokeColor=none;fillColor=none;align=left;verticalAlign=middle;spacingLeft=4;spacingRight=4;overflow=hidden;points=[[0,0.5],[1,0.5]];portConstraint=eastwest;rotatable=0;whiteSpace=wrap;html=1;direction=east;" parent="1" vertex="1">
          <mxGeometry x="400" y="360" width="100" height="40" as="geometry" />
        </mxCell>
        <mxCell id="1P4cuoXFRqFEAs9iOs6Q-12" value="" style="edgeStyle=orthogonalEdgeStyle;rounded=0;orthogonalLoop=1;jettySize=auto;html=1;" parent="1" source="JLMIjg0oPhcSFCDLWmgb-40" target="JLMIjg0oPhcSFCDLWmgb-81" edge="1">
          <mxGeometry relative="1" as="geometry" />
        </mxCell>
        <mxCell id="JLMIjg0oPhcSFCDLWmgb-40" value="Conv" style="rounded=1;whiteSpace=wrap;html=1;fillColor=#f8cecc;strokeColor=#b85450;rotation=0;direction=east;" parent="1" vertex="1">
          <mxGeometry x="520" y="289.17" width="80" height="40" as="geometry" />
        </mxCell>
        <mxCell id="JLMIjg0oPhcSFCDLWmgb-41" value="" style="endArrow=classic;html=1;rounded=0;exitX=1;exitY=0.5;exitDx=0;exitDy=0;" parent="1" source="JLMIjg0oPhcSFCDLWmgb-40" edge="1">
          <mxGeometry width="50" height="50" relative="1" as="geometry">
            <mxPoint x="560" y="339.17" as="sourcePoint" />
            <mxPoint x="620" y="309.17" as="targetPoint" />
          </mxGeometry>
        </mxCell>
        <mxCell id="JLMIjg0oPhcSFCDLWmgb-45" value="Concat" style="rounded=1;whiteSpace=wrap;html=1;fillColor=#dae8fc;strokeColor=#6c8ebf;" parent="1" vertex="1">
          <mxGeometry x="820" y="289.17" width="80" height="40" as="geometry" />
        </mxCell>
        <mxCell id="JLMIjg0oPhcSFCDLWmgb-46" value="" style="endArrow=classic;html=1;rounded=0;exitX=0;exitY=0.5;exitDx=0;exitDy=0;" parent="1" edge="1">
          <mxGeometry width="50" height="50" relative="1" as="geometry">
            <mxPoint x="800" y="309.17" as="sourcePoint" />
            <mxPoint x="820" y="309.17" as="targetPoint" />
          </mxGeometry>
        </mxCell>
        <mxCell id="JLMIjg0oPhcSFCDLWmgb-47" value="Conv" style="rounded=1;whiteSpace=wrap;html=1;fillColor=#f8cecc;strokeColor=#b85450;" parent="1" vertex="1">
          <mxGeometry x="920" y="289.17" width="80" height="40" as="geometry" />
        </mxCell>
        <mxCell id="JLMIjg0oPhcSFCDLWmgb-48" value="" style="endArrow=classic;html=1;rounded=0;exitX=1;exitY=0.5;exitDx=0;exitDy=0;" parent="1" source="JLMIjg0oPhcSFCDLWmgb-45" edge="1">
          <mxGeometry width="50" height="50" relative="1" as="geometry">
            <mxPoint x="910" y="309.17" as="sourcePoint" />
            <mxPoint x="920" y="309.17" as="targetPoint" />
          </mxGeometry>
        </mxCell>
        <mxCell id="JLMIjg0oPhcSFCDLWmgb-50" value="" style="endArrow=none;html=1;rounded=0;exitX=0.5;exitY=1;exitDx=0;exitDy=0;" parent="1" source="JLMIjg0oPhcSFCDLWmgb-40" edge="1">
          <mxGeometry width="50" height="50" relative="1" as="geometry">
            <mxPoint x="760" y="379.17" as="sourcePoint" />
            <mxPoint x="560" y="359.17" as="targetPoint" />
          </mxGeometry>
        </mxCell>
        <mxCell id="JLMIjg0oPhcSFCDLWmgb-51" value="" style="endArrow=classic;html=1;rounded=0;" parent="1" edge="1">
          <mxGeometry width="50" height="50" relative="1" as="geometry">
            <mxPoint x="560" y="359.17" as="sourcePoint" />
            <mxPoint x="660" y="359.17" as="targetPoint" />
          </mxGeometry>
        </mxCell>
        <mxCell id="JLMIjg0oPhcSFCDLWmgb-52" value="Conv" style="rounded=1;whiteSpace=wrap;html=1;fillColor=#f8cecc;strokeColor=#b85450;rotation=0;direction=east;" parent="1" vertex="1">
          <mxGeometry x="655" y="346" width="80" height="40" as="geometry" />
        </mxCell>
        <mxCell id="JLMIjg0oPhcSFCDLWmgb-53" value="" style="endArrow=none;html=1;rounded=0;" parent="1" edge="1">
          <mxGeometry width="50" height="50" relative="1" as="geometry">
            <mxPoint x="740" y="359.17" as="sourcePoint" />
            <mxPoint x="810" y="359.17" as="targetPoint" />
          </mxGeometry>
        </mxCell>
        <mxCell id="JLMIjg0oPhcSFCDLWmgb-54" value="" style="endArrow=none;html=1;rounded=0;" parent="1" edge="1">
          <mxGeometry width="50" height="50" relative="1" as="geometry">
            <mxPoint x="810" y="359.17" as="sourcePoint" />
            <mxPoint x="810" y="309.17" as="targetPoint" />
          </mxGeometry>
        </mxCell>
        <mxCell id="JLMIjg0oPhcSFCDLWmgb-55" value="" style="endArrow=none;html=1;rounded=0;exitX=0.5;exitY=1;exitDx=0;exitDy=0;" parent="1" edge="1">
          <mxGeometry width="50" height="50" relative="1" as="geometry">
            <mxPoint x="660" y="289.17" as="sourcePoint" />
            <mxPoint x="660" y="279.17" as="targetPoint" />
          </mxGeometry>
        </mxCell>
        <mxCell id="JLMIjg0oPhcSFCDLWmgb-56" value="" style="endArrow=none;html=1;rounded=0;" parent="1" edge="1">
          <mxGeometry width="50" height="50" relative="1" as="geometry">
            <mxPoint x="660" y="279.17" as="sourcePoint" />
            <mxPoint x="760" y="279.17" as="targetPoint" />
          </mxGeometry>
        </mxCell>
        <mxCell id="JLMIjg0oPhcSFCDLWmgb-57" value="" style="endArrow=none;html=1;rounded=0;" parent="1" edge="1">
          <mxGeometry width="50" height="50" relative="1" as="geometry">
            <mxPoint x="760" y="289.17" as="sourcePoint" />
            <mxPoint x="760" y="279.17" as="targetPoint" />
          </mxGeometry>
        </mxCell>
        <mxCell id="JLMIjg0oPhcSFCDLWmgb-58" value="N" style="text;strokeColor=none;fillColor=none;align=left;verticalAlign=middle;spacingLeft=4;spacingRight=4;overflow=hidden;points=[[0,0.5],[1,0.5]];portConstraint=eastwest;rotatable=0;whiteSpace=wrap;html=1;" parent="1" vertex="1">
          <mxGeometry x="700" y="279.17" width="40" height="25" as="geometry" />
        </mxCell>
        <mxCell id="JLMIjg0oPhcSFCDLWmgb-59" value="C3K iAFF" style="text;strokeColor=none;fillColor=none;align=left;verticalAlign=middle;spacingLeft=4;spacingRight=4;overflow=hidden;points=[[0,0.5],[1,0.5]];portConstraint=eastwest;rotatable=0;whiteSpace=wrap;html=1;" parent="1" vertex="1">
          <mxGeometry x="845" y="353" width="80" height="30" as="geometry" />
        </mxCell>
        <mxCell id="JLMIjg0oPhcSFCDLWmgb-60" value="" style="endArrow=classic;html=1;rounded=0;exitX=1;exitY=0.5;exitDx=0;exitDy=0;" parent="1" source="JLMIjg0oPhcSFCDLWmgb-47" edge="1">
          <mxGeometry width="50" height="50" relative="1" as="geometry">
            <mxPoint x="760" y="379.17" as="sourcePoint" />
            <mxPoint x="1020" y="309.17" as="targetPoint" />
          </mxGeometry>
        </mxCell>
        <mxCell id="JLMIjg0oPhcSFCDLWmgb-61" value="Conv" style="rounded=1;whiteSpace=wrap;html=1;fillColor=#fad9d5;strokeColor=#ae4132;" parent="1" vertex="1">
          <mxGeometry x="600" y="100" width="80" height="40" as="geometry" />
        </mxCell>
        <mxCell id="JLMIjg0oPhcSFCDLWmgb-62" value="Conv" style="rounded=1;whiteSpace=wrap;html=1;fillColor=#fad9d5;strokeColor=#ae4132;" parent="1" vertex="1">
          <mxGeometry x="720" y="100" width="80" height="40" as="geometry" />
        </mxCell>
        <mxCell id="JLMIjg0oPhcSFCDLWmgb-63" value="" style="endArrow=classic;html=1;rounded=0;entryX=0;entryY=0.5;entryDx=0;entryDy=0;" parent="1" target="JLMIjg0oPhcSFCDLWmgb-61" edge="1">
          <mxGeometry width="50" height="50" relative="1" as="geometry">
            <mxPoint x="560" y="120" as="sourcePoint" />
            <mxPoint x="550" y="23" as="targetPoint" />
          </mxGeometry>
        </mxCell>
        <mxCell id="JLMIjg0oPhcSFCDLWmgb-64" value="" style="endArrow=classic;html=1;rounded=0;exitX=1;exitY=0.5;exitDx=0;exitDy=0;entryX=0;entryY=0.5;entryDx=0;entryDy=0;" parent="1" source="JLMIjg0oPhcSFCDLWmgb-61" target="JLMIjg0oPhcSFCDLWmgb-62" edge="1">
          <mxGeometry width="50" height="50" relative="1" as="geometry">
            <mxPoint x="500" y="93" as="sourcePoint" />
            <mxPoint x="550" y="43" as="targetPoint" />
          </mxGeometry>
        </mxCell>
        <mxCell id="JLMIjg0oPhcSFCDLWmgb-65" value="" style="endArrow=classic;html=1;rounded=0;exitX=1;exitY=0.5;exitDx=0;exitDy=0;entryX=0;entryY=0.5;entryDx=0;entryDy=0;" parent="1" source="JLMIjg0oPhcSFCDLWmgb-62" target="JLMIjg0oPhcSFCDLWmgb-83" edge="1">
          <mxGeometry width="50" height="50" relative="1" as="geometry">
            <mxPoint x="500" y="93" as="sourcePoint" />
            <mxPoint x="820" y="130" as="targetPoint" />
          </mxGeometry>
        </mxCell>
        <mxCell id="JLMIjg0oPhcSFCDLWmgb-69" value="Bottleneck-iAFF" style="text;html=1;align=center;verticalAlign=middle;whiteSpace=wrap;rounded=0;" parent="1" vertex="1">
          <mxGeometry x="860" y="153" width="90" height="30" as="geometry" />
        </mxCell>
        <mxCell id="JLMIjg0oPhcSFCDLWmgb-75" value="" style="endArrow=classic;html=1;rounded=0;entryX=0.5;entryY=0;entryDx=0;entryDy=0;" parent="1" target="JLMIjg0oPhcSFCDLWmgb-83" edge="1">
          <mxGeometry width="50" height="50" relative="1" as="geometry">
            <mxPoint x="580" y="120" as="sourcePoint" />
            <mxPoint x="970" y="70" as="targetPoint" />
            <Array as="points">
              <mxPoint x="580" y="80" />
              <mxPoint x="880" y="80" />
            </Array>
          </mxGeometry>
        </mxCell>
        <mxCell id="JLMIjg0oPhcSFCDLWmgb-80" value="" style="endArrow=none;html=1;rounded=0;" parent="1" edge="1">
          <mxGeometry width="50" height="50" relative="1" as="geometry">
            <mxPoint x="430" y="330" as="sourcePoint" />
            <mxPoint x="430" y="180" as="targetPoint" />
          </mxGeometry>
        </mxCell>
        <mxCell id="JLMIjg0oPhcSFCDLWmgb-81" value="Bottleneck-iAFF" style="rounded=1;whiteSpace=wrap;html=1;fillColor=#e1d5e7;strokeColor=#9673a6;" parent="1" vertex="1">
          <mxGeometry x="620" y="289.17" width="80" height="40" as="geometry" />
        </mxCell>
        <mxCell id="JLMIjg0oPhcSFCDLWmgb-82" value="Bottleneck-iAFF" style="rounded=1;whiteSpace=wrap;html=1;fillColor=#e1d5e7;strokeColor=#9673a6;" parent="1" vertex="1">
          <mxGeometry x="720" y="289.17" width="80" height="40" as="geometry" />
        </mxCell>
        <mxCell id="JLMIjg0oPhcSFCDLWmgb-83" value="iAFF" style="rounded=1;whiteSpace=wrap;html=1;fillColor=#f9f7ed;strokeColor=#36393d;rotation=0;direction=east;" parent="1" vertex="1">
          <mxGeometry x="840" y="100" width="80" height="40" as="geometry" />
        </mxCell>
        <mxCell id="JLMIjg0oPhcSFCDLWmgb-87" value="" style="endArrow=classic;html=1;rounded=0;exitX=1;exitY=0.5;exitDx=0;exitDy=0;" parent="1" source="JLMIjg0oPhcSFCDLWmgb-83" edge="1">
          <mxGeometry width="50" height="50" relative="1" as="geometry">
            <mxPoint x="760" y="110" as="sourcePoint" />
            <mxPoint x="980" y="120" as="targetPoint" />
          </mxGeometry>
        </mxCell>
        <mxCell id="JLMIjg0oPhcSFCDLWmgb-88" value="" style="endArrow=none;html=1;rounded=0;" parent="1" edge="1">
          <mxGeometry width="50" height="50" relative="1" as="geometry">
            <mxPoint x="500" y="160" as="sourcePoint" />
            <mxPoint x="560" y="120" as="targetPoint" />
            <Array as="points">
              <mxPoint x="560" y="160" />
            </Array>
          </mxGeometry>
        </mxCell>
        <mxCell id="JLMIjg0oPhcSFCDLWmgb-89" value="" style="endArrow=classic;html=1;rounded=0;" parent="1" edge="1">
          <mxGeometry width="50" height="50" relative="1" as="geometry">
            <mxPoint x="560" y="160" as="sourcePoint" />
            <mxPoint x="600" y="200" as="targetPoint" />
            <Array as="points">
              <mxPoint x="560" y="200" />
            </Array>
          </mxGeometry>
        </mxCell>
        <mxCell id="JLMIjg0oPhcSFCDLWmgb-90" value="Conv" style="rounded=1;whiteSpace=wrap;html=1;fillColor=#fad9d5;strokeColor=#ae4132;" parent="1" vertex="1">
          <mxGeometry x="590" y="183" width="80" height="40" as="geometry" />
        </mxCell>
        <mxCell id="JLMIjg0oPhcSFCDLWmgb-91" value="Conv" style="rounded=1;whiteSpace=wrap;html=1;fillColor=#fad9d5;strokeColor=#ae4132;" parent="1" vertex="1">
          <mxGeometry x="710" y="183" width="80" height="40" as="geometry" />
        </mxCell>
        <mxCell id="JLMIjg0oPhcSFCDLWmgb-92" value="" style="endArrow=classic;html=1;rounded=0;exitX=1;exitY=0.5;exitDx=0;exitDy=0;" parent="1" source="JLMIjg0oPhcSFCDLWmgb-90" edge="1">
          <mxGeometry width="50" height="50" relative="1" as="geometry">
            <mxPoint x="680" y="200" as="sourcePoint" />
            <mxPoint x="710" y="203" as="targetPoint" />
          </mxGeometry>
        </mxCell>
        <mxCell id="JLMIjg0oPhcSFCDLWmgb-93" value="" style="endArrow=classic;html=1;rounded=0;exitX=1;exitY=0.425;exitDx=0;exitDy=0;exitPerimeter=0;" parent="1" source="JLMIjg0oPhcSFCDLWmgb-91" edge="1">
          <mxGeometry width="50" height="50" relative="1" as="geometry">
            <mxPoint x="800" y="200" as="sourcePoint" />
            <mxPoint x="980" y="200" as="targetPoint" />
          </mxGeometry>
        </mxCell>
        <mxCell id="JLMIjg0oPhcSFCDLWmgb-94" value="iAFF=True" style="text;html=1;align=center;verticalAlign=middle;whiteSpace=wrap;rounded=0;" parent="1" vertex="1">
          <mxGeometry x="500" y="83.5" width="60" height="30" as="geometry" />
        </mxCell>
        <mxCell id="JLMIjg0oPhcSFCDLWmgb-95" value="iAFF=False" style="text;html=1;align=center;verticalAlign=middle;whiteSpace=wrap;rounded=0;" parent="1" vertex="1">
          <mxGeometry x="500" y="195" width="60" height="30" as="geometry" />
        </mxCell>
        <mxCell id="JLMIjg0oPhcSFCDLWmgb-96" value="" style="endArrow=none;dashed=1;html=1;rounded=0;" parent="1" edge="1">
          <mxGeometry width="50" height="50" relative="1" as="geometry">
            <mxPoint x="290" y="70" as="sourcePoint" />
            <mxPoint x="110" y="70" as="targetPoint" />
            <Array as="points">
              <mxPoint x="290" y="420" />
              <mxPoint x="110" y="420" />
            </Array>
          </mxGeometry>
        </mxCell>
        <mxCell id="JLMIjg0oPhcSFCDLWmgb-97" value="" style="endArrow=none;dashed=1;html=1;rounded=0;" parent="1" edge="1">
          <mxGeometry width="50" height="50" relative="1" as="geometry">
            <mxPoint x="290" y="70" as="sourcePoint" />
            <mxPoint x="110" y="70" as="targetPoint" />
          </mxGeometry>
        </mxCell>
        <mxCell id="JLMIjg0oPhcSFCDLWmgb-98" value="" style="endArrow=none;dashed=1;html=1;rounded=0;" parent="1" edge="1">
          <mxGeometry width="50" height="50" relative="1" as="geometry">
            <mxPoint x="300" y="70" as="sourcePoint" />
            <mxPoint x="480" y="70" as="targetPoint" />
            <Array as="points">
              <mxPoint x="300" y="420" />
              <mxPoint x="480" y="420" />
            </Array>
          </mxGeometry>
        </mxCell>
        <mxCell id="JLMIjg0oPhcSFCDLWmgb-99" value="" style="endArrow=none;dashed=1;html=1;rounded=0;" parent="1" edge="1">
          <mxGeometry width="50" height="50" relative="1" as="geometry">
            <mxPoint x="300" y="70" as="sourcePoint" />
            <mxPoint x="480" y="70" as="targetPoint" />
          </mxGeometry>
        </mxCell>
        <mxCell id="JLMIjg0oPhcSFCDLWmgb-100" value="" style="endArrow=none;dashed=1;html=1;rounded=0;" parent="1" edge="1">
          <mxGeometry width="50" height="50" relative="1" as="geometry">
            <mxPoint x="490" y="393" as="sourcePoint" />
            <mxPoint x="490" y="270" as="targetPoint" />
            <Array as="points">
              <mxPoint x="1025" y="393" />
              <mxPoint x="1025" y="270" />
            </Array>
          </mxGeometry>
        </mxCell>
        <mxCell id="JLMIjg0oPhcSFCDLWmgb-101" value="" style="endArrow=none;dashed=1;html=1;rounded=0;" parent="1" edge="1">
          <mxGeometry width="50" height="50" relative="1" as="geometry">
            <mxPoint x="490" y="393" as="sourcePoint" />
            <mxPoint x="490" y="270" as="targetPoint" />
          </mxGeometry>
        </mxCell>
        <mxCell id="JLMIjg0oPhcSFCDLWmgb-102" value="" style="endArrow=none;dashed=1;html=1;rounded=0;" parent="1" edge="1">
          <mxGeometry width="50" height="50" relative="1" as="geometry">
            <mxPoint x="990" y="70" as="sourcePoint" />
            <mxPoint x="490" y="70" as="targetPoint" />
            <Array as="points">
              <mxPoint x="990" y="240" />
              <mxPoint x="490" y="240" />
            </Array>
          </mxGeometry>
        </mxCell>
        <mxCell id="JLMIjg0oPhcSFCDLWmgb-104" value="" style="endArrow=none;dashed=1;html=1;rounded=0;" parent="1" edge="1">
          <mxGeometry width="50" height="50" relative="1" as="geometry">
            <mxPoint x="490" y="70" as="sourcePoint" />
            <mxPoint x="990" y="70" as="targetPoint" />
          </mxGeometry>
        </mxCell>
        <mxCell id="JLMIjg0oPhcSFCDLWmgb-105" value="" style="endArrow=classic;html=1;rounded=0;entryX=0;entryY=0.5;entryDx=0;entryDy=0;" parent="1" target="JLMIjg0oPhcSFCDLWmgb-40" edge="1">
          <mxGeometry width="50" height="50" relative="1" as="geometry">
            <mxPoint x="500" y="309" as="sourcePoint" />
            <mxPoint x="920" y="170" as="targetPoint" />
          </mxGeometry>
        </mxCell>
        <mxCell id="1P4cuoXFRqFEAs9iOs6Q-4" value="" style="endArrow=classic;html=1;rounded=0;exitX=0.5;exitY=1;exitDx=0;exitDy=0;entryX=0.5;entryY=0;entryDx=0;entryDy=0;" parent="1" source="JLMIjg0oPhcSFCDLWmgb-4" target="JLMIjg0oPhcSFCDLWmgb-1" edge="1">
          <mxGeometry width="50" height="50" relative="1" as="geometry">
            <mxPoint x="270" y="250" as="sourcePoint" />
            <mxPoint x="320" y="200" as="targetPoint" />
          </mxGeometry>
        </mxCell>
        <mxCell id="1P4cuoXFRqFEAs9iOs6Q-14" value="" style="endArrow=none;dashed=1;html=1;rounded=0;entryX=1;entryY=0.5;entryDx=0;entryDy=0;exitX=0;exitY=0.5;exitDx=0;exitDy=0;" parent="1" source="JLMIjg0oPhcSFCDLWmgb-82" target="JLMIjg0oPhcSFCDLWmgb-81" edge="1">
          <mxGeometry width="50" height="50" relative="1" as="geometry">
            <mxPoint x="600" y="250" as="sourcePoint" />
            <mxPoint x="650" y="200" as="targetPoint" />
          </mxGeometry>
        </mxCell>
        <mxCell id="e-gDfhFK8sGMZk0XEWSH-2" value="" style="endArrow=classic;html=1;rounded=0;entryX=0.5;entryY=0;entryDx=0;entryDy=0;exitX=0.5;exitY=1;exitDx=0;exitDy=0;" edge="1" parent="1" source="JLMIjg0oPhcSFCDLWmgb-23" target="JLMIjg0oPhcSFCDLWmgb-25">
          <mxGeometry width="50" height="50" relative="1" as="geometry">
            <mxPoint x="240" y="300" as="sourcePoint" />
            <mxPoint x="290" y="250" as="targetPoint" />
          </mxGeometry>
        </mxCell>
        <mxCell id="e-gDfhFK8sGMZk0XEWSH-3" value="" style="endArrow=classic;html=1;rounded=0;entryX=0.5;entryY=0;entryDx=0;entryDy=0;exitX=0.5;exitY=1;exitDx=0;exitDy=0;" edge="1" parent="1" source="JLMIjg0oPhcSFCDLWmgb-1" target="JLMIjg0oPhcSFCDLWmgb-6">
          <mxGeometry width="50" height="50" relative="1" as="geometry">
            <mxPoint x="240" y="300" as="sourcePoint" />
            <mxPoint x="290" y="250" as="targetPoint" />
          </mxGeometry>
        </mxCell>
      </root>
    </mxGraphModel>
  </diagram>
</mxfile>
